<svg xmlns="http://www.w3.org/2000/svg" version="1.1" xmlns:xlink="http://www.w3.org/1999/xlink" xmlns:svgjs="http://svgjs.dev/svgjs" width="1440" height="560" preserveAspectRatio="none" viewBox="0 0 1440 560"><g mask="url(&quot;#SvgjsMask1010&quot;)" fill="none"><path d="M-61.45 365.49L-61.45 365.49" stroke="#132e65" stroke-width="1.5"></path><path d="M-61.45 365.49L-84.45 497.68" stroke="#132e65" stroke-width="1.5"></path><path d="M-61.45 365.49L101.2 378.18" stroke="#132e65" stroke-width="1.5"></path><path d="M-61.45 365.49L41.15 540.89" stroke="#132e65" stroke-width="1.5"></path><path d="M-84.45 497.68L-84.45 497.68" stroke="#132e65" stroke-width="1.5"></path><path d="M-84.45 497.68L41.15 540.89" stroke="#132e65" stroke-width="1.5"></path><path d="M-84.45 497.68L-98.92 651.87" stroke="#132e65" stroke-width="1.5"></path><path d="M-84.45 497.68L101.2 378.18" stroke="#132e65" stroke-width="1.5"></path><path d="M-98.92 651.87L-98.92 651.87" stroke="#132e65" stroke-width="1.5"></path><path d="M-98.92 651.87L52.41 679.13" stroke="#132e65" stroke-width="1.5"></path><path d="M-98.92 651.87L41.15 540.89" stroke="#132e65" stroke-width="1.5"></path><path d="M-98.92 651.87L-61.45 365.49" stroke="#132e65" stroke-width="1.5"></path><path d="M-98.92 651.87L207.29 690.91" stroke="#132e65" stroke-width="1.5"></path><path d="M101.2 378.18L101.2 378.18" stroke="#132e65" stroke-width="1.5"></path><path d="M101.2 378.18L225.66 399.77" stroke="#132e65" stroke-width="1.5"></path><path d="M101.2 378.18L41.15 540.89" stroke="#132e65" stroke-width="1.5"></path><path d="M101.2 378.18L370.64 490.4" stroke="#132e65" stroke-width="1.5"></path><path d="M101.2 378.18L52.41 679.13" stroke="#132e65" stroke-width="1.5"></path><path d="M41.15 540.89L41.15 540.89" stroke="#132e65" stroke-width="1.5"></path><path d="M41.15 540.89L52.41 679.13" stroke="#132e65" stroke-width="1.5"></path><path d="M52.41 679.13L52.41 679.13" stroke="#132e65" stroke-width="1.5"></path><path d="M225.66 399.77L225.66 399.77" stroke="#132e65" stroke-width="1.5"></path><path d="M207.29 690.91L207.29 690.91" stroke="#132e65" stroke-width="1.5"></path><path d="M207.29 690.91L52.41 679.13" stroke="#132e65" stroke-width="1.5"></path><path d="M207.29 690.91L369.81 676.05" stroke="#132e65" stroke-width="1.5"></path><path d="M207.29 690.91L41.15 540.89" stroke="#132e65" stroke-width="1.5"></path><path d="M411.8 357.14L411.8 357.14" stroke="#132e65" stroke-width="1.5"></path><path d="M411.8 357.14L370.64 490.4" stroke="#132e65" stroke-width="1.5"></path><path d="M411.8 357.14L556.28 350.5" stroke="#132e65" stroke-width="1.5"></path><path d="M411.8 357.14L516.7 494.17" stroke="#132e65" stroke-width="1.5"></path><path d="M411.8 357.14L225.66 399.77" stroke="#132e65" stroke-width="1.5"></path><path d="M411.8 357.14L695.74 405.44" stroke="#132e65" stroke-width="1.5"></path><path d="M411.8 357.14L101.2 378.18" stroke="#132e65" stroke-width="1.5"></path><path d="M370.64 490.4L370.64 490.4" stroke="#132e65" stroke-width="1.5"></path><path d="M370.64 490.4L516.7 494.17" stroke="#132e65" stroke-width="1.5"></path><path d="M370.64 490.4L225.66 399.77" stroke="#132e65" stroke-width="1.5"></path><path d="M369.81 676.05L369.81 676.05" stroke="#132e65" stroke-width="1.5"></path><path d="M369.81 676.05L533.75 665.06" stroke="#132e65" stroke-width="1.5"></path><path d="M556.28 350.5L556.28 350.5" stroke="#132e65" stroke-width="1.5"></path><path d="M556.28 350.5L516.7 494.17" stroke="#132e65" stroke-width="1.5"></path><path d="M556.28 350.5L695.74 405.44" stroke="#132e65" stroke-width="1.5"></path><path d="M516.7 494.17L516.7 494.17" stroke="#132e65" stroke-width="1.5"></path><path d="M533.75 665.06L533.75 665.06" stroke="#132e65" stroke-width="1.5"></path><path d="M533.75 665.06L685.01 684.69" stroke="#132e65" stroke-width="1.5"></path><path d="M533.75 665.06L516.7 494.17" stroke="#132e65" stroke-width="1.5"></path><path d="M533.75 665.06L370.64 490.4" stroke="#132e65" stroke-width="1.5"></path><path d="M533.75 665.06L695.74 405.44" stroke="#132e65" stroke-width="1.5"></path><path d="M533.75 665.06L846.77 682.99" stroke="#132e65" stroke-width="1.5"></path><path d="M708.81 194.46L708.81 194.46" stroke="#132e65" stroke-width="1.5"></path><path d="M708.81 194.46L851.71 253.73" stroke="#132e65" stroke-width="1.5"></path><path d="M708.81 194.46L829.71 358.45" stroke="#132e65" stroke-width="1.5"></path><path d="M708.81 194.46L695.74 405.44" stroke="#132e65" stroke-width="1.5"></path><path d="M708.81 194.46L556.28 350.5" stroke="#132e65" stroke-width="1.5"></path><path d="M695.74 405.44L695.74 405.44" stroke="#132e65" stroke-width="1.5"></path><path d="M695.74 405.44L829.71 358.45" stroke="#132e65" stroke-width="1.5"></path><path d="M695.74 405.44L836.91 507.58" stroke="#132e65" stroke-width="1.5"></path><path d="M695.74 405.44L516.7 494.17" stroke="#132e65" stroke-width="1.5"></path><path d="M695.74 405.44L851.71 253.73" stroke="#132e65" stroke-width="1.5"></path><path d="M685.01 684.69L685.01 684.69" stroke="#132e65" stroke-width="1.5"></path><path d="M851.71 253.73L851.71 253.73" stroke="#132e65" stroke-width="1.5"></path><path d="M851.71 253.73L829.71 358.45" stroke="#132e65" stroke-width="1.5"></path><path d="M851.71 253.73L963.08 205.67" stroke="#132e65" stroke-width="1.5"></path><path d="M829.71 358.45L829.71 358.45" stroke="#132e65" stroke-width="1.5"></path><path d="M829.71 358.45L961.03 374.65" stroke="#132e65" stroke-width="1.5"></path><path d="M836.91 507.58L836.91 507.58" stroke="#132e65" stroke-width="1.5"></path><path d="M836.91 507.58L950.39 515.71" stroke="#132e65" stroke-width="1.5"></path><path d="M836.91 507.58L829.71 358.45" stroke="#132e65" stroke-width="1.5"></path><path d="M846.77 682.99L846.77 682.99" stroke="#132e65" stroke-width="1.5"></path><path d="M846.77 682.99L943.44 693.92" stroke="#132e65" stroke-width="1.5"></path><path d="M846.77 682.99L685.01 684.69" stroke="#132e65" stroke-width="1.5"></path><path d="M846.77 682.99L836.91 507.58" stroke="#132e65" stroke-width="1.5"></path><path d="M846.77 682.99L950.39 515.71" stroke="#132e65" stroke-width="1.5"></path><path d="M940.19 -41.38L940.19 -41.38" stroke="#132e65" stroke-width="1.5"></path><path d="M940.19 -41.38L948.63 38.44" stroke="#132e65" stroke-width="1.5"></path><path d="M940.19 -41.38L1118.78 -78.76" stroke="#132e65" stroke-width="1.5"></path><path d="M940.19 -41.38L1148.48 88.6" stroke="#132e65" stroke-width="1.5"></path><path d="M940.19 -41.38L963.08 205.67" stroke="#132e65" stroke-width="1.5"></path><path d="M940.19 -41.38L1124.46 200.98" stroke="#132e65" stroke-width="1.5"></path><path d="M948.63 38.44L948.63 38.44" stroke="#132e65" stroke-width="1.5"></path><path d="M948.63 38.44L963.08 205.67" stroke="#132e65" stroke-width="1.5"></path><path d="M948.63 38.44L1148.48 88.6" stroke="#132e65" stroke-width="1.5"></path><path d="M948.63 38.44L1118.78 -78.76" stroke="#132e65" stroke-width="1.5"></path><path d="M948.63 38.44L851.71 253.73" stroke="#132e65" stroke-width="1.5"></path><path d="M948.63 38.44L1124.46 200.98" stroke="#132e65" stroke-width="1.5"></path><path d="M963.08 205.67L963.08 205.67" stroke="#132e65" stroke-width="1.5"></path><path d="M963.08 205.67L1124.46 200.98" stroke="#132e65" stroke-width="1.5"></path><path d="M961.03 374.65L961.03 374.65" stroke="#132e65" stroke-width="1.5"></path><path d="M961.03 374.65L950.39 515.71" stroke="#132e65" stroke-width="1.5"></path><path d="M961.03 374.65L851.71 253.73" stroke="#132e65" stroke-width="1.5"></path><path d="M950.39 515.71L950.39 515.71" stroke="#132e65" stroke-width="1.5"></path><path d="M950.39 515.71L1090.75 510.95" stroke="#132e65" stroke-width="1.5"></path><path d="M950.39 515.71L943.44 693.92" stroke="#132e65" stroke-width="1.5"></path><path d="M943.44 693.92L943.44 693.92" stroke="#132e65" stroke-width="1.5"></path><path d="M1118.78 -78.76L1118.78 -78.76" stroke="#132e65" stroke-width="1.5"></path><path d="M1118.78 -78.76L1148.48 88.6" stroke="#132e65" stroke-width="1.5"></path><path d="M1148.48 88.6L1148.48 88.6" stroke="#132e65" stroke-width="1.5"></path><path d="M1148.48 88.6L1124.46 200.98" stroke="#132e65" stroke-width="1.5"></path><path d="M1148.48 88.6L1264.48 109.1" stroke="#132e65" stroke-width="1.5"></path><path d="M1148.48 88.6L1266.66 220.62" stroke="#132e65" stroke-width="1.5"></path><path d="M1124.46 200.98L1124.46 200.98" stroke="#132e65" stroke-width="1.5"></path><path d="M1124.46 200.98L1266.66 220.62" stroke="#132e65" stroke-width="1.5"></path><path d="M1147.71 392.06L1147.71 392.06" stroke="#132e65" stroke-width="1.5"></path><path d="M1147.71 392.06L1252.65 399.05" stroke="#132e65" stroke-width="1.5"></path><path d="M1147.71 392.06L1090.75 510.95" stroke="#132e65" stroke-width="1.5"></path><path d="M1147.71 392.06L961.03 374.65" stroke="#132e65" stroke-width="1.5"></path><path d="M1147.71 392.06L1124.46 200.98" stroke="#132e65" stroke-width="1.5"></path><path d="M1090.75 510.95L1090.75 510.95" stroke="#132e65" stroke-width="1.5"></path><path d="M1135.73 709.69L1135.73 709.69" stroke="#132e65" stroke-width="1.5"></path><path d="M1135.73 709.69L1295.91 705.08" stroke="#132e65" stroke-width="1.5"></path><path d="M1135.73 709.69L943.44 693.92" stroke="#132e65" stroke-width="1.5"></path><path d="M1135.73 709.69L1258.94 551.19" stroke="#132e65" stroke-width="1.5"></path><path d="M1308.08 -75.9L1308.08 -75.9" stroke="#132e65" stroke-width="1.5"></path><path d="M1308.08 -75.9L1425.92 -62.15" stroke="#132e65" stroke-width="1.5"></path><path d="M1308.08 -75.9L1118.78 -78.76" stroke="#132e65" stroke-width="1.5"></path><path d="M1308.08 -75.9L1264.48 109.1" stroke="#132e65" stroke-width="1.5"></path><path d="M1308.08 -75.9L1456.74 94.14" stroke="#132e65" stroke-width="1.5"></path><path d="M1264.48 109.1L1264.48 109.1" stroke="#132e65" stroke-width="1.5"></path><path d="M1264.48 109.1L1266.66 220.62" stroke="#132e65" stroke-width="1.5"></path><path d="M1264.48 109.1L1124.46 200.98" stroke="#132e65" stroke-width="1.5"></path><path d="M1264.48 109.1L1456.74 94.14" stroke="#132e65" stroke-width="1.5"></path><path d="M1266.66 220.62L1266.66 220.62" stroke="#132e65" stroke-width="1.5"></path><path d="M1266.66 220.62L1252.65 399.05" stroke="#132e65" stroke-width="1.5"></path><path d="M1266.66 220.62L1456.71 201.29" stroke="#132e65" stroke-width="1.5"></path><path d="M1266.66 220.62L1147.71 392.06" stroke="#132e65" stroke-width="1.5"></path><path d="M1252.65 399.05L1252.65 399.05" stroke="#132e65" stroke-width="1.5"></path><path d="M1252.65 399.05L1258.94 551.19" stroke="#132e65" stroke-width="1.5"></path><path d="M1252.65 399.05L1446.65 381.43" stroke="#132e65" stroke-width="1.5"></path><path d="M1252.65 399.05L1090.75 510.95" stroke="#132e65" stroke-width="1.5"></path><path d="M1258.94 551.19L1258.94 551.19" stroke="#132e65" stroke-width="1.5"></path><path d="M1258.94 551.19L1295.91 705.08" stroke="#132e65" stroke-width="1.5"></path><path d="M1258.94 551.19L1090.75 510.95" stroke="#132e65" stroke-width="1.5"></path><path d="M1258.94 551.19L1445.56 527.18" stroke="#132e65" stroke-width="1.5"></path><path d="M1295.91 705.08L1295.91 705.08" stroke="#132e65" stroke-width="1.5"></path><path d="M1425.92 -62.15L1425.92 -62.15" stroke="#132e65" stroke-width="1.5"></path><path d="M1425.92 -62.15L1456.74 94.14" stroke="#132e65" stroke-width="1.5"></path><path d="M1425.92 -62.15L1589.14 -99.15" stroke="#132e65" stroke-width="1.5"></path><path d="M1425.92 -62.15L1264.48 109.1" stroke="#132e65" stroke-width="1.5"></path><path d="M1425.92 -62.15L1456.71 201.29" stroke="#132e65" stroke-width="1.5"></path><path d="M1456.74 94.14L1456.74 94.14" stroke="#132e65" stroke-width="1.5"></path><path d="M1456.74 94.14L1456.71 201.29" stroke="#132e65" stroke-width="1.5"></path><path d="M1456.74 94.14L1266.66 220.62" stroke="#132e65" stroke-width="1.5"></path><path d="M1456.74 94.14L1589.14 -99.15" stroke="#132e65" stroke-width="1.5"></path><path d="M1456.71 201.29L1456.71 201.29" stroke="#132e65" stroke-width="1.5"></path><path d="M1456.71 201.29L1446.65 381.43" stroke="#132e65" stroke-width="1.5"></path><path d="M1446.65 381.43L1446.65 381.43" stroke="#132e65" stroke-width="1.5"></path><path d="M1446.65 381.43L1445.56 527.18" stroke="#132e65" stroke-width="1.5"></path><path d="M1446.65 381.43L1604.46 376.11" stroke="#132e65" stroke-width="1.5"></path><path d="M1445.56 527.18L1445.56 527.18" stroke="#132e65" stroke-width="1.5"></path><path d="M1445.56 527.18L1462.43 711.94" stroke="#132e65" stroke-width="1.5"></path><path d="M1445.56 527.18L1611.15 655.65" stroke="#132e65" stroke-width="1.5"></path><path d="M1445.56 527.18L1604.46 376.11" stroke="#132e65" stroke-width="1.5"></path><path d="M1462.43 711.94L1462.43 711.94" stroke="#132e65" stroke-width="1.5"></path><path d="M1462.43 711.94L1611.15 655.65" stroke="#132e65" stroke-width="1.5"></path><path d="M1462.43 711.94L1295.91 705.08" stroke="#132e65" stroke-width="1.5"></path><path d="M1462.43 711.94L1258.94 551.19" stroke="#132e65" stroke-width="1.5"></path><path d="M1589.14 -99.15L1589.14 -99.15" stroke="#132e65" stroke-width="1.5"></path><path d="M1589.14 -99.15L1308.08 -75.9" stroke="#132e65" stroke-width="1.5"></path><path d="M1589.14 -99.15L1456.71 201.29" stroke="#132e65" stroke-width="1.5"></path><path d="M1589.14 -99.15L1264.48 109.1" stroke="#132e65" stroke-width="1.5"></path><path d="M1604.46 376.11L1604.46 376.11" stroke="#132e65" stroke-width="1.5"></path><path d="M1604.46 376.11L1456.71 201.29" stroke="#132e65" stroke-width="1.5"></path><path d="M1604.46 376.11L1611.15 655.65" stroke="#132e65" stroke-width="1.5"></path><path d="M1604.46 376.11L1456.74 94.14" stroke="#132e65" stroke-width="1.5"></path><path d="M1611.15 655.65L1611.15 655.65" stroke="#132e65" stroke-width="1.5"></path><path d="M1611.15 655.65L1295.91 705.08" stroke="#132e65" stroke-width="1.5"></path><path d="M1611.15 655.65L1446.65 381.43" stroke="#132e65" stroke-width="1.5"></path><circle r="5" cx="-61.45" cy="365.49" fill="#132e65"></circle><circle r="5" cx="-84.45" cy="497.68" fill="#132e65"></circle><circle r="5" cx="-98.92" cy="651.87" fill="#132e65"></circle><circle r="5" cx="101.2" cy="378.18" fill="#132e65"></circle><circle r="5" cx="41.15" cy="540.89" fill="#132e65"></circle><circle r="5" cx="52.41" cy="679.13" fill="#132e65"></circle><circle r="5" cx="225.66" cy="399.77" fill="#132e65"></circle><circle r="5" cx="207.29" cy="690.91" fill="#132e65"></circle><circle r="5" cx="411.8" cy="357.14" fill="#132e65"></circle><circle r="5" cx="370.64" cy="490.4" fill="#132e65"></circle><circle r="5" cx="369.81" cy="676.05" fill="#132e65"></circle><circle r="5" cx="556.28" cy="350.5" fill="#132e65"></circle><circle r="5" cx="516.7" cy="494.17" fill="#132e65"></circle><circle r="5" cx="533.75" cy="665.06" fill="#132e65"></circle><circle r="5" cx="708.81" cy="194.46" fill="#132e65"></circle><circle r="5" cx="695.74" cy="405.44" fill="#132e65"></circle><circle r="5" cx="685.01" cy="684.69" fill="#132e65"></circle><circle r="5" cx="851.71" cy="253.73" fill="#132e65"></circle><circle r="5" cx="829.71" cy="358.45" fill="#132e65"></circle><circle r="5" cx="836.91" cy="507.58" fill="#132e65"></circle><circle r="5" cx="846.77" cy="682.99" fill="#132e65"></circle><circle r="5" cx="940.19" cy="-41.38" fill="#132e65"></circle><circle r="5" cx="948.63" cy="38.44" fill="#132e65"></circle><circle r="5" cx="963.08" cy="205.67" fill="#132e65"></circle><circle r="5" cx="961.03" cy="374.65" fill="#132e65"></circle><circle r="5" cx="950.39" cy="515.71" fill="#132e65"></circle><circle r="5" cx="943.44" cy="693.92" fill="#132e65"></circle><circle r="5" cx="1118.78" cy="-78.76" fill="#132e65"></circle><circle r="5" cx="1148.48" cy="88.6" fill="#132e65"></circle><circle r="5" cx="1124.46" cy="200.98" fill="#132e65"></circle><circle r="5" cx="1147.71" cy="392.06" fill="#132e65"></circle><circle r="5" cx="1090.75" cy="510.95" fill="#132e65"></circle><circle r="5" cx="1135.73" cy="709.69" fill="#132e65"></circle><circle r="5" cx="1308.08" cy="-75.9" fill="#132e65"></circle><circle r="5" cx="1264.48" cy="109.1" fill="#132e65"></circle><circle r="5" cx="1266.66" cy="220.62" fill="#132e65"></circle><circle r="5" cx="1252.65" cy="399.05" fill="#132e65"></circle><circle r="5" cx="1258.94" cy="551.19" fill="#132e65"></circle><circle r="5" cx="1295.91" cy="705.08" fill="#132e65"></circle><circle r="5" cx="1425.92" cy="-62.15" fill="#132e65"></circle><circle r="5" cx="1456.74" cy="94.14" fill="#132e65"></circle><circle r="5" cx="1456.71" cy="201.29" fill="#132e65"></circle><circle r="5" cx="1446.65" cy="381.43" fill="#132e65"></circle><circle r="5" cx="1445.56" cy="527.18" fill="#132e65"></circle><circle r="5" cx="1462.43" cy="711.94" fill="#132e65"></circle><circle r="5" cx="1589.14" cy="-99.15" fill="#132e65"></circle><circle r="5" cx="1604.46" cy="376.11" fill="#132e65"></circle><circle r="5" cx="1611.15" cy="655.65" fill="#132e65"></circle><path d="M555.47 675.34L555.47 675.34" stroke="hsl(228.5, 77.2%, 51.5%)" stroke-width="1.5"></path><path d="M555.47 675.34L652.51 662.42" stroke="hsl(228.5, 77.2%, 51.5%)" stroke-width="1.5"></path><path d="M555.47 675.34L500.07 494.43" stroke="hsl(228.5, 77.2%, 51.5%)" stroke-width="1.5"></path><path d="M555.47 675.34L704 537.84" stroke="hsl(228.5, 77.2%, 51.5%)" stroke-width="1.5"></path><path d="M555.47 675.34L382.18 543.79" stroke="hsl(228.5, 77.2%, 51.5%)" stroke-width="1.5"></path><path d="M555.47 675.34L800.59 685.46" stroke="hsl(228.5, 77.2%, 51.5%)" stroke-width="1.5"></path><path d="M555.47 675.34L650.94 388.32" stroke="hsl(228.5, 77.2%, 51.5%)" stroke-width="1.5"></path><path d="M987.55 703.32L987.55 703.32" stroke="hsl(228.5, 77.2%, 51.5%)" stroke-width="1.5"></path><path d="M987.55 703.32L1143.24 672.64" stroke="hsl(228.5, 77.2%, 51.5%)" stroke-width="1.5"></path><path d="M987.55 703.32L800.59 685.46" stroke="hsl(228.5, 77.2%, 51.5%)" stroke-width="1.5"></path><path d="M987.55 703.32L1112.33 546.54" stroke="hsl(228.5, 77.2%, 51.5%)" stroke-width="1.5"></path><path d="M987.55 703.32L845.36 534.61" stroke="hsl(228.5, 77.2%, 51.5%)" stroke-width="1.5"></path><path d="M987.55 703.32L1239.29 539.34" stroke="hsl(228.5, 77.2%, 51.5%)" stroke-width="1.5"></path><path d="M987.55 703.32L1294.52 693.22" stroke="hsl(228.5, 77.2%, 51.5%)" stroke-width="1.5"></path><path d="M1129.17 104.1L1129.17 104.1" stroke="hsl(228.5, 77.2%, 51.5%)" stroke-width="1.5"></path><path d="M1129.17 104.1L1089.92 218.94" stroke="hsl(228.5, 77.2%, 51.5%)" stroke-width="1.5"></path><path d="M1129.17 104.1L1257.86 64.53" stroke="hsl(228.5, 77.2%, 51.5%)" stroke-width="1.5"></path><path d="M1129.17 104.1L990.66 246.77" stroke="hsl(228.5, 77.2%, 51.5%)" stroke-width="1.5"></path><path d="M1129.17 104.1L1246.44 -58.78" stroke="hsl(228.5, 77.2%, 51.5%)" stroke-width="1.5"></path><path d="M1448.8 72.15L1448.8 72.15" stroke="hsl(228.5, 77.2%, 51.5%)" stroke-width="1.5"></path><path d="M1448.8 72.15L1552.24 60.81" stroke="hsl(228.5, 77.2%, 51.5%)" stroke-width="1.5"></path><path d="M1448.8 72.15L1444.44 193.97" stroke="hsl(228.5, 77.2%, 51.5%)" stroke-width="1.5"></path><path d="M1448.8 72.15L1541.67 -63.35" stroke="hsl(228.5, 77.2%, 51.5%)" stroke-width="1.5"></path><path d="M1448.8 72.15L1437.83 -105.13" stroke="hsl(228.5, 77.2%, 51.5%)" stroke-width="1.5"></path><path d="M1448.8 72.15L1552.12 219.75" stroke="hsl(228.5, 77.2%, 51.5%)" stroke-width="1.5"></path><path d="M1444.44 193.97L1444.44 193.97" stroke="hsl(228.5, 77.2%, 51.5%)" stroke-width="1.5"></path><path d="M1444.44 193.97L1552.12 219.75" stroke="hsl(228.5, 77.2%, 51.5%)" stroke-width="1.5"></path><path d="M1444.44 193.97L1309.1 198.89" stroke="hsl(228.5, 77.2%, 51.5%)" stroke-width="1.5"></path><path d="M1444.44 193.97L1446.2 354.37" stroke="hsl(228.5, 77.2%, 51.5%)" stroke-width="1.5"></path><path d="M1416.27 549.06L1416.27 549.06" stroke="hsl(228.5, 77.2%, 51.5%)" stroke-width="1.5"></path><path d="M1416.27 549.06L1392.34 699.94" stroke="hsl(228.5, 77.2%, 51.5%)" stroke-width="1.5"></path><path d="M1416.27 549.06L1239.29 539.34" stroke="hsl(228.5, 77.2%, 51.5%)" stroke-width="1.5"></path><path d="M1416.27 549.06L1294.52 693.22" stroke="hsl(228.5, 77.2%, 51.5%)" stroke-width="1.5"></path><path d="M1416.27 549.06L1446.2 354.37" stroke="hsl(228.5, 77.2%, 51.5%)" stroke-width="1.5"></path><path d="M-76.03 515.92L-76.03 515.92" stroke="hsl(228.5, 77.2%, 51.5%)" stroke-width="1.5"></path><path d="M-76.03 515.92L76.11 537.03" stroke="hsl(228.5, 77.2%, 51.5%)" stroke-width="1.5"></path><path d="M-76.03 515.92L-55.91 685.93" stroke="hsl(228.5, 77.2%, 51.5%)" stroke-width="1.5"></path><path d="M-76.03 515.92L102.88 669.3" stroke="hsl(228.5, 77.2%, 51.5%)" stroke-width="1.5"></path><path d="M-55.91 685.93L-55.91 685.93" stroke="hsl(228.5, 77.2%, 51.5%)" stroke-width="1.5"></path><path d="M-55.91 685.93L102.88 669.3" stroke="hsl(228.5, 77.2%, 51.5%)" stroke-width="1.5"></path><path d="M-55.91 685.93L76.11 537.03" stroke="hsl(228.5, 77.2%, 51.5%)" stroke-width="1.5"></path><path d="M76.11 537.03L76.11 537.03" stroke="hsl(228.5, 77.2%, 51.5%)" stroke-width="1.5"></path><path d="M76.11 537.03L102.88 669.3" stroke="hsl(228.5, 77.2%, 51.5%)" stroke-width="1.5"></path><path d="M76.11 537.03L188.13 668.7" stroke="hsl(228.5, 77.2%, 51.5%)" stroke-width="1.5"></path><path d="M76.11 537.03L382.18 543.79" stroke="hsl(228.5, 77.2%, 51.5%)" stroke-width="1.5"></path><path d="M76.11 537.03L500.07 494.43" stroke="hsl(228.5, 77.2%, 51.5%)" stroke-width="1.5"></path><path d="M102.88 669.3L102.88 669.3" stroke="hsl(228.5, 77.2%, 51.5%)" stroke-width="1.5"></path><path d="M102.88 669.3L188.13 668.7" stroke="hsl(228.5, 77.2%, 51.5%)" stroke-width="1.5"></path><path d="M188.13 668.7L188.13 668.7" stroke="hsl(228.5, 77.2%, 51.5%)" stroke-width="1.5"></path><path d="M382.18 543.79L382.18 543.79" stroke="hsl(228.5, 77.2%, 51.5%)" stroke-width="1.5"></path><path d="M382.18 543.79L500.07 494.43" stroke="hsl(228.5, 77.2%, 51.5%)" stroke-width="1.5"></path><path d="M500.07 494.43L500.07 494.43" stroke="hsl(228.5, 77.2%, 51.5%)" stroke-width="1.5"></path><path d="M500.07 494.43L650.94 388.32" stroke="hsl(228.5, 77.2%, 51.5%)" stroke-width="1.5"></path><path d="M650.94 388.32L650.94 388.32" stroke="hsl(228.5, 77.2%, 51.5%)" stroke-width="1.5"></path><path d="M650.94 388.32L804.21 374.15" stroke="hsl(228.5, 77.2%, 51.5%)" stroke-width="1.5"></path><path d="M650.94 388.32L704 537.84" stroke="hsl(228.5, 77.2%, 51.5%)" stroke-width="1.5"></path><path d="M704 537.84L704 537.84" stroke="hsl(228.5, 77.2%, 51.5%)" stroke-width="1.5"></path><path d="M704 537.84L652.51 662.42" stroke="hsl(228.5, 77.2%, 51.5%)" stroke-width="1.5"></path><path d="M704 537.84L845.36 534.61" stroke="hsl(228.5, 77.2%, 51.5%)" stroke-width="1.5"></path><path d="M652.51 662.42L652.51 662.42" stroke="hsl(228.5, 77.2%, 51.5%)" stroke-width="1.5"></path><path d="M652.51 662.42L800.59 685.46" stroke="hsl(228.5, 77.2%, 51.5%)" stroke-width="1.5"></path><path d="M652.51 662.42L500.07 494.43" stroke="hsl(228.5, 77.2%, 51.5%)" stroke-width="1.5"></path><path d="M804.21 374.15L804.21 374.15" stroke="hsl(228.5, 77.2%, 51.5%)" stroke-width="1.5"></path><path d="M804.21 374.15L845.36 534.61" stroke="hsl(228.5, 77.2%, 51.5%)" stroke-width="1.5"></path><path d="M804.21 374.15L991.95 360.56" stroke="hsl(228.5, 77.2%, 51.5%)" stroke-width="1.5"></path><path d="M804.21 374.15L704 537.84" stroke="hsl(228.5, 77.2%, 51.5%)" stroke-width="1.5"></path><path d="M804.21 374.15L990.66 246.77" stroke="hsl(228.5, 77.2%, 51.5%)" stroke-width="1.5"></path><path d="M845.36 534.61L845.36 534.61" stroke="hsl(228.5, 77.2%, 51.5%)" stroke-width="1.5"></path><path d="M845.36 534.61L800.59 685.46" stroke="hsl(228.5, 77.2%, 51.5%)" stroke-width="1.5"></path><path d="M845.36 534.61L991.95 360.56" stroke="hsl(228.5, 77.2%, 51.5%)" stroke-width="1.5"></path><path d="M845.36 534.61L652.51 662.42" stroke="hsl(228.5, 77.2%, 51.5%)" stroke-width="1.5"></path><path d="M800.59 685.46L800.59 685.46" stroke="hsl(228.5, 77.2%, 51.5%)" stroke-width="1.5"></path><path d="M800.59 685.46L704 537.84" stroke="hsl(228.5, 77.2%, 51.5%)" stroke-width="1.5"></path><path d="M800.59 685.46L804.21 374.15" stroke="hsl(228.5, 77.2%, 51.5%)" stroke-width="1.5"></path><path d="M990.66 246.77L990.66 246.77" stroke="hsl(228.5, 77.2%, 51.5%)" stroke-width="1.5"></path><path d="M990.66 246.77L1089.92 218.94" stroke="hsl(228.5, 77.2%, 51.5%)" stroke-width="1.5"></path><path d="M990.66 246.77L991.95 360.56" stroke="hsl(228.5, 77.2%, 51.5%)" stroke-width="1.5"></path><path d="M990.66 246.77L1090.68 370.72" stroke="hsl(228.5, 77.2%, 51.5%)" stroke-width="1.5"></path><path d="M991.95 360.56L991.95 360.56" stroke="hsl(228.5, 77.2%, 51.5%)" stroke-width="1.5"></path><path d="M991.95 360.56L1090.68 370.72" stroke="hsl(228.5, 77.2%, 51.5%)" stroke-width="1.5"></path><path d="M1089.92 218.94L1089.92 218.94" stroke="hsl(228.5, 77.2%, 51.5%)" stroke-width="1.5"></path><path d="M1089.92 218.94L1090.68 370.72" stroke="hsl(228.5, 77.2%, 51.5%)" stroke-width="1.5"></path><path d="M1089.92 218.94L991.95 360.56" stroke="hsl(228.5, 77.2%, 51.5%)" stroke-width="1.5"></path><path d="M1089.92 218.94L1309.1 198.89" stroke="hsl(228.5, 77.2%, 51.5%)" stroke-width="1.5"></path><path d="M1090.68 370.72L1090.68 370.72" stroke="hsl(228.5, 77.2%, 51.5%)" stroke-width="1.5"></path><path d="M1112.33 546.54L1112.33 546.54" stroke="hsl(228.5, 77.2%, 51.5%)" stroke-width="1.5"></path><path d="M1112.33 546.54L1239.29 539.34" stroke="hsl(228.5, 77.2%, 51.5%)" stroke-width="1.5"></path><path d="M1112.33 546.54L1143.24 672.64" stroke="hsl(228.5, 77.2%, 51.5%)" stroke-width="1.5"></path><path d="M1112.33 546.54L1090.68 370.72" stroke="hsl(228.5, 77.2%, 51.5%)" stroke-width="1.5"></path><path d="M1112.33 546.54L991.95 360.56" stroke="hsl(228.5, 77.2%, 51.5%)" stroke-width="1.5"></path><path d="M1112.33 546.54L1294.52 693.22" stroke="hsl(228.5, 77.2%, 51.5%)" stroke-width="1.5"></path><path d="M1143.24 672.64L1143.24 672.64" stroke="hsl(228.5, 77.2%, 51.5%)" stroke-width="1.5"></path><path d="M1143.24 672.64L1294.52 693.22" stroke="hsl(228.5, 77.2%, 51.5%)" stroke-width="1.5"></path><path d="M1143.24 672.64L1239.29 539.34" stroke="hsl(228.5, 77.2%, 51.5%)" stroke-width="1.5"></path><path d="M1143.24 672.64L1392.34 699.94" stroke="hsl(228.5, 77.2%, 51.5%)" stroke-width="1.5"></path><path d="M1143.24 672.64L1416.27 549.06" stroke="hsl(228.5, 77.2%, 51.5%)" stroke-width="1.5"></path><path d="M1246.44 -58.78L1246.44 -58.78" stroke="hsl(228.5, 77.2%, 51.5%)" stroke-width="1.5"></path><path d="M1246.44 -58.78L1257.86 64.53" stroke="hsl(228.5, 77.2%, 51.5%)" stroke-width="1.5"></path><path d="M1246.44 -58.78L1437.83 -105.13" stroke="hsl(228.5, 77.2%, 51.5%)" stroke-width="1.5"></path><path d="M1246.44 -58.78L1448.8 72.15" stroke="hsl(228.5, 77.2%, 51.5%)" stroke-width="1.5"></path><path d="M1257.86 64.53L1257.86 64.53" stroke="hsl(228.5, 77.2%, 51.5%)" stroke-width="1.5"></path><path d="M1257.86 64.53L1309.1 198.89" stroke="hsl(228.5, 77.2%, 51.5%)" stroke-width="1.5"></path><path d="M1257.86 64.53L1448.8 72.15" stroke="hsl(228.5, 77.2%, 51.5%)" stroke-width="1.5"></path><path d="M1257.86 64.53L1444.44 193.97" stroke="hsl(228.5, 77.2%, 51.5%)" stroke-width="1.5"></path><path d="M1257.86 64.53L1089.92 218.94" stroke="hsl(228.5, 77.2%, 51.5%)" stroke-width="1.5"></path><path d="M1309.1 198.89L1309.1 198.89" stroke="hsl(228.5, 77.2%, 51.5%)" stroke-width="1.5"></path><path d="M1309.1 198.89L1299.12 375.6" stroke="hsl(228.5, 77.2%, 51.5%)" stroke-width="1.5"></path><path d="M1309.1 198.89L1448.8 72.15" stroke="hsl(228.5, 77.2%, 51.5%)" stroke-width="1.5"></path><path d="M1299.12 375.6L1299.12 375.6" stroke="hsl(228.5, 77.2%, 51.5%)" stroke-width="1.5"></path><path d="M1299.12 375.6L1446.2 354.37" stroke="hsl(228.5, 77.2%, 51.5%)" stroke-width="1.5"></path><path d="M1299.12 375.6L1239.29 539.34" stroke="hsl(228.5, 77.2%, 51.5%)" stroke-width="1.5"></path><path d="M1299.12 375.6L1090.68 370.72" stroke="hsl(228.5, 77.2%, 51.5%)" stroke-width="1.5"></path><path d="M1299.12 375.6L1416.27 549.06" stroke="hsl(228.5, 77.2%, 51.5%)" stroke-width="1.5"></path><path d="M1239.29 539.34L1239.29 539.34" stroke="hsl(228.5, 77.2%, 51.5%)" stroke-width="1.5"></path><path d="M1239.29 539.34L1294.52 693.22" stroke="hsl(228.5, 77.2%, 51.5%)" stroke-width="1.5"></path><path d="M1294.52 693.22L1294.52 693.22" stroke="hsl(228.5, 77.2%, 51.5%)" stroke-width="1.5"></path><path d="M1294.52 693.22L1392.34 699.94" stroke="hsl(228.5, 77.2%, 51.5%)" stroke-width="1.5"></path><path d="M1437.83 -105.13L1437.83 -105.13" stroke="hsl(228.5, 77.2%, 51.5%)" stroke-width="1.5"></path><path d="M1437.83 -105.13L1541.67 -63.35" stroke="hsl(228.5, 77.2%, 51.5%)" stroke-width="1.5"></path><path d="M1437.83 -105.13L1552.24 60.81" stroke="hsl(228.5, 77.2%, 51.5%)" stroke-width="1.5"></path><path d="M1446.2 354.37L1446.2 354.37" stroke="hsl(228.5, 77.2%, 51.5%)" stroke-width="1.5"></path><path d="M1446.2 354.37L1557.83 391.08" stroke="hsl(228.5, 77.2%, 51.5%)" stroke-width="1.5"></path><path d="M1392.34 699.94L1392.34 699.94" stroke="hsl(228.5, 77.2%, 51.5%)" stroke-width="1.5"></path><path d="M1392.34 699.94L1604.79 690.18" stroke="hsl(228.5, 77.2%, 51.5%)" stroke-width="1.5"></path><path d="M1392.34 699.94L1239.29 539.34" stroke="hsl(228.5, 77.2%, 51.5%)" stroke-width="1.5"></path><path d="M1392.34 699.94L1112.33 546.54" stroke="hsl(228.5, 77.2%, 51.5%)" stroke-width="1.5"></path><path d="M1541.67 -63.35L1541.67 -63.35" stroke="hsl(228.5, 77.2%, 51.5%)" stroke-width="1.5"></path><path d="M1541.67 -63.35L1552.24 60.81" stroke="hsl(228.5, 77.2%, 51.5%)" stroke-width="1.5"></path><path d="M1541.67 -63.35L1444.44 193.97" stroke="hsl(228.5, 77.2%, 51.5%)" stroke-width="1.5"></path><path d="M1541.67 -63.35L1552.12 219.75" stroke="hsl(228.5, 77.2%, 51.5%)" stroke-width="1.5"></path><path d="M1541.67 -63.35L1246.44 -58.78" stroke="hsl(228.5, 77.2%, 51.5%)" stroke-width="1.5"></path><path d="M1552.24 60.81L1552.24 60.81" stroke="hsl(228.5, 77.2%, 51.5%)" stroke-width="1.5"></path><path d="M1552.24 60.81L1552.12 219.75" stroke="hsl(228.5, 77.2%, 51.5%)" stroke-width="1.5"></path><path d="M1552.24 60.81L1444.44 193.97" stroke="hsl(228.5, 77.2%, 51.5%)" stroke-width="1.5"></path><path d="M1552.12 219.75L1552.12 219.75" stroke="hsl(228.5, 77.2%, 51.5%)" stroke-width="1.5"></path><path d="M1552.12 219.75L1446.2 354.37" stroke="hsl(228.5, 77.2%, 51.5%)" stroke-width="1.5"></path><path d="M1552.12 219.75L1557.83 391.08" stroke="hsl(228.5, 77.2%, 51.5%)" stroke-width="1.5"></path><path d="M1557.83 391.08L1557.83 391.08" stroke="hsl(228.5, 77.2%, 51.5%)" stroke-width="1.5"></path><path d="M1557.83 391.08L1416.27 549.06" stroke="hsl(228.5, 77.2%, 51.5%)" stroke-width="1.5"></path><path d="M1557.83 391.08L1444.44 193.97" stroke="hsl(228.5, 77.2%, 51.5%)" stroke-width="1.5"></path><path d="M1604.79 690.18L1604.79 690.18" stroke="hsl(228.5, 77.2%, 51.5%)" stroke-width="1.5"></path><path d="M1604.79 690.18L1416.27 549.06" stroke="hsl(228.5, 77.2%, 51.5%)" stroke-width="1.5"></path><circle r="25" cx="555.47" cy="675.34" fill="url(&quot;#SvgjsRadialGradient1011&quot;)"></circle><circle r="25" cx="987.55" cy="703.32" fill="url(&quot;#SvgjsRadialGradient1011&quot;)"></circle><circle r="25" cx="1129.17" cy="104.1" fill="url(&quot;#SvgjsRadialGradient1011&quot;)"></circle><circle r="25" cx="1448.8" cy="72.15" fill="url(&quot;#SvgjsRadialGradient1011&quot;)"></circle><circle r="25" cx="1444.44" cy="193.97" fill="url(&quot;#SvgjsRadialGradient1011&quot;)"></circle><circle r="25" cx="1416.27" cy="549.06" fill="url(&quot;#SvgjsRadialGradient1011&quot;)"></circle><circle r="5" cx="-76.03" cy="515.92" fill="#8b9ad9"></circle><circle r="5" cx="-55.91" cy="685.93" fill="#8b9ad9"></circle><circle r="5" cx="76.11" cy="537.03" fill="#8b9ad9"></circle><circle r="5" cx="102.88" cy="669.3" fill="#8b9ad9"></circle><circle r="5" cx="188.13" cy="668.7" fill="#8b9ad9"></circle><circle r="5" cx="382.18" cy="543.79" fill="#8b9ad9"></circle><circle r="5" cx="500.07" cy="494.43" fill="#8b9ad9"></circle><circle r="5" cx="650.94" cy="388.32" fill="#8b9ad9"></circle><circle r="5" cx="704" cy="537.84" fill="#8b9ad9"></circle><circle r="5" cx="652.51" cy="662.42" fill="#8b9ad9"></circle><circle r="5" cx="804.21" cy="374.15" fill="#8b9ad9"></circle><circle r="5" cx="845.36" cy="534.61" fill="#8b9ad9"></circle><circle r="5" cx="800.59" cy="685.46" fill="#8b9ad9"></circle><circle r="5" cx="990.66" cy="246.77" fill="#8b9ad9"></circle><circle r="5" cx="991.95" cy="360.56" fill="#8b9ad9"></circle><circle r="5" cx="1089.92" cy="218.94" fill="#8b9ad9"></circle><circle r="5" cx="1090.68" cy="370.72" fill="#8b9ad9"></circle><circle r="5" cx="1112.33" cy="546.54" fill="#8b9ad9"></circle><circle r="5" cx="1143.24" cy="672.64" fill="#8b9ad9"></circle><circle r="5" cx="1246.44" cy="-58.78" fill="#8b9ad9"></circle><circle r="5" cx="1257.86" cy="64.53" fill="#8b9ad9"></circle><circle r="5" cx="1309.1" cy="198.89" fill="#8b9ad9"></circle><circle r="5" cx="1299.12" cy="375.6" fill="#8b9ad9"></circle><circle r="5" cx="1239.29" cy="539.34" fill="#8b9ad9"></circle><circle r="5" cx="1294.52" cy="693.22" fill="#8b9ad9"></circle><circle r="5" cx="1437.83" cy="-105.13" fill="#8b9ad9"></circle><circle r="5" cx="1446.2" cy="354.37" fill="#8b9ad9"></circle><circle r="5" cx="1392.34" cy="699.94" fill="#8b9ad9"></circle><circle r="5" cx="1541.67" cy="-63.35" fill="#8b9ad9"></circle><circle r="5" cx="1552.24" cy="60.81" fill="#8b9ad9"></circle><circle r="5" cx="1552.12" cy="219.75" fill="#8b9ad9"></circle><circle r="5" cx="1557.83" cy="391.08" fill="#8b9ad9"></circle><circle r="5" cx="1604.79" cy="690.18" fill="#8b9ad9"></circle></g><defs><mask id="SvgjsMask1010"><rect width="1440" height="560" fill="#ffffff"></rect></mask><radialGradient id="SvgjsRadialGradient1011"><stop stop-color="#ffffff" offset="0.1"></stop><stop stop-color="#1735b3" offset="0.2"></stop><stop stop-color="rgba(23, 53, 179, 0)" offset="1"></stop></radialGradient></defs></svg>